<svg width="48" height="48" viewBox="0 0 48 48" xmlns="http://www.w3.org/2000/svg"><title>add-pluss-2</title><path d="M40.993 18A5.001 5.001 0 0 1 46 23.002v1.996A5.002 5.002 0 0 1 40.993 30H30v10.993A5.001 5.001 0 0 1 24.998 46h-1.996A5.002 5.002 0 0 1 18 40.993V30H7.007A5.001 5.001 0 0 1 2 24.998v-1.996A5.002 5.002 0 0 1 7.007 18H18V7.007A5.001 5.001 0 0 1 23.002 2h1.996A5.002 5.002 0 0 1 30 7.007V18h10.993zM26 20V7.007C26 6.447 25.552 6 24.998 6h-1.996C22.446 6 22 6.448 22 7.007V20a2 2 0 0 1-2 2H7.007C6.447 22 6 22.448 6 23.002v1.996C6 25.554 6.448 26 7.007 26H20a2 2 0 0 1 2 2v12.993c0 .56.448 1.007 1.002 1.007h1.996c.556 0 1.002-.448 1.002-1.007V28a2 2 0 0 1 2-2h12.993c.56 0 1.007-.448 1.007-1.002v-1.996c0-.556-.448-1.002-1.007-1.002H28a2 2 0 0 1-2-2z" fill-rule="nonzero" fill="#000"/></svg>