<svg width="48" height="48" viewBox="0 0 48 48" xmlns="http://www.w3.org/2000/svg"><title>alarm-clock</title><path d="M25.414 27.414A1.994 1.994 0 0 1 24 28h-7a2 2 0 1 1 0-4h5v-8a2 2 0 1 1 4 0v10c0 .552-.224 1.052-.586 1.414zm-19.83-9.226A9 9 0 1 1 18.886 6.66 20.03 20.03 0 0 1 24 6c1.768 0 3.481.23 5.114.66a9 9 0 1 1 13.303 11.528C43.437 20.588 44 23.228 44 26c0 4.29-1.35 8.265-3.65 11.522l5.064 5.064a2 2 0 0 1-2.828 2.828l-4.864-4.864A19.931 19.931 0 0 1 24 46a19.931 19.931 0 0 1-13.722-5.45l-4.864 4.864a2 2 0 0 1-2.828-2.828l5.064-5.064A19.908 19.908 0 0 1 4 26c0-2.772.564-5.412 1.583-7.812zM7.55 14.62a20.09 20.09 0 0 1 7.521-6.522 5 5 0 1 0-7.521 6.522zm25.377-6.522a20.09 20.09 0 0 1 7.521 6.522 5 5 0 1 0-7.521-6.522zM24 42c8.837 0 16-7.163 16-16s-7.163-16-16-16S8 17.163 8 26s7.163 16 16 16z" fill-rule="nonzero" fill="#000"/></svg>