<svg width="48" height="48" viewBox="0 0 48 48" xmlns="http://www.w3.org/2000/svg"><title>arrow-right-2</title><path d="M14.254 40.042l1.692 1.705a.845.845 0 0 0 1.21-.004l16.301-16.426a1.873 1.873 0 0 0 0-2.637L17.156 6.254a.851.851 0 0 0-1.21-.003l-1.692 1.704a.906.906 0 0 0 .009 1.267L27.53 22.59a2 2 0 0 1 0 2.818L14.263 38.775a.907.907 0 0 0-.009 1.267zM23.292 24l-11.868-11.96c-1.893-1.907-1.9-4.995-.009-6.902l1.692-1.704a4.85 4.85 0 0 1 6.888.004l16.301 16.425a5.873 5.873 0 0 1 0 8.273L19.995 44.561a4.845 4.845 0 0 1-6.888.004l-1.692-1.705c-1.89-1.904-1.885-4.994.009-6.903L23.292 24z" fill-rule="nonzero" fill="#000"/></svg>