<svg width="48" height="48" viewBox="0 0 48 48" xmlns="http://www.w3.org/2000/svg"><title>arrow-up-2</title><path d="M12.043 36.576c-1.909 1.894-4.999 1.899-6.903.009l-1.705-1.692a4.845 4.845 0 0 1 .004-6.888l16.426-16.301a5.873 5.873 0 0 1 8.273 0l16.425 16.301a4.85 4.85 0 0 1 .004 6.888l-1.704 1.692c-1.907 1.892-4.995 1.884-6.903-.009L24.001 24.708 12.043 36.576zm10.55-16.106a2 2 0 0 1 2.817 0l13.368 13.267a.906.906 0 0 0 1.267.009l1.704-1.692a.851.851 0 0 0-.003-1.21L25.32 14.543a1.873 1.873 0 0 0-2.637 0L6.257 30.844a.845.845 0 0 0-.004 1.21l1.705 1.692a.907.907 0 0 0 1.267-.009L22.592 20.47z" fill-rule="nonzero" fill="#000"/></svg>