<svg width="48" height="48" viewBox="0 0 48 48" xmlns="http://www.w3.org/2000/svg"><title>backspace</title><path d="M28 21.172l2.586-2.586a2 2 0 0 1 2.828 2.828L30.828 24l2.586 2.586a2 2 0 0 1-2.828 2.828L28 26.828l-2.586 2.586a2 2 0 0 1-2.828-2.828L25.172 24l-2.586-2.586a2 2 0 0 1 2.828-2.828L28 21.172zM40.996 39H17.64c-2.222 0-5.003-1.216-6.504-2.844l-7.649-8.294c-1.984-2.15-1.985-5.572 0-7.724l7.65-8.294C12.634 10.22 15.424 9 17.64 9h23.355C43.766 9 46 11.24 46 14.008v19.984A5.004 5.004 0 0 1 40.996 39zm0-4C41.55 35 42 34.551 42 33.992V14.008c0-.56-.446-1.008-1.004-1.008H17.64c-1.1 0-2.823.753-3.563 1.556l-7.65 8.293c-.571.62-.57 1.682 0 2.302l7.65 8.293C14.82 34.25 16.535 35 17.64 35h23.355z" fill-rule="nonzero" fill="#000"/></svg>