<svg width="48" height="48" viewBox="0 0 48 48" xmlns="http://www.w3.org/2000/svg"><title>bin</title><path d="M39.868 17.924l-1.659 23.222c-.193 2.7-2.5 4.854-5.2 4.854H14.99c-2.705 0-5.007-2.147-5.2-4.854L8.132 17.924A5.008 5.008 0 0 1 4 13v-2a5.003 5.003 0 0 1 4.868-4.998l6.469-.81A5.003 5.003 0 0 1 20.003 2h7.994a5.009 5.009 0 0 1 4.665 3.193l6.47.809A5.007 5.007 0 0 1 44 11v2a5.003 5.003 0 0 1-4.132 4.924zM12.148 18l1.633 22.861c.044.616.605 1.139 1.21 1.139H33.01c.6 0 1.167-.53 1.21-1.139L35.852 18H12.148zm14.859 5.834a2 2 0 1 1 3.986.332l-1 12a2 2 0 1 1-3.986-.332l1-12zm-10 .332a2 2 0 1 1 3.986-.332l1 12a2 2 0 1 1-3.986.332l-1-12zM9.007 10C8.45 10 8 10.449 8 11v2c0 .548.452 1 1.007 1h29.986C39.55 14 40 13.551 40 13v-2c0-.548-.452-1-1.007-1a2 2 0 0 1-.249-.015l-7.992-1A2 2 0 0 1 29 7c0-.549-.451-1-1.003-1h-7.994A1 1 0 0 0 19 7a2 2 0 0 1-1.752 1.985l-7.992 1a2 2 0 0 1-.249.015z" fill-rule="nonzero" fill="#000"/></svg>