<svg width="48" height="48" viewBox="0 0 48 48" xmlns="http://www.w3.org/2000/svg"><title>boat</title><path d="M8 21.007V10a2 2 0 0 1 2-2h8V4a2 2 0 0 1 2-2h8a2 2 0 0 1 2 2v4h8a2 2 0 0 1 2 2v11.007l4.82 2.17a2 2 0 0 1 1.026 2.592l-5 12a2 2 0 0 1-2.955.895 5.969 5.969 0 0 0-.38-.22 11.726 11.726 0 0 0-1.254-.587C34.917 37.321 33.474 37 32 37c-1.377 0-2.27.233-3.653.834.227-.098-.713.314-.946.41-1.215.508-2.2.756-3.401.756-1.228 0-2.27-.257-3.604-.785-.14-.055-.284-.113-.459-.185l-.437-.181C17.985 37.224 17.153 37 16 37c-1.253 0-2.668.323-4.1.869-.515.196-.993.406-1.419.615a9.86 9.86 0 0 0-.489.252 2 2 0 0 1-2.838-.967l-5-12a2 2 0 0 1 1.025-2.593L8 21.006zm4-1.8l11.18-5.03a2 2 0 0 1 1.64 0L36 19.206V12H12v7.207zM22 6v2h4V6h-4zM10.042 34.301c.14-.056.285-.113.434-.17C12.325 33.427 14.19 33 16 33c1.792 0 3.068.344 5.025 1.151l.435.18c.16.065.286.117.406.164.907.359 1.499.505 2.134.505.592 0 1.092-.126 1.86-.447.122-.05.25-.105.423-.181l.47-.206C28.594 33.365 29.992 33 32 33c2.026 0 3.959.43 5.743 1.143l.24.098 3.423-8.215L24 18.193 6.594 26.026l3.448 8.275zM2.57 43.398a2 2 0 1 1 2.86-2.796c.125.128.447.39.925.664.802.461 1.69.734 2.645.734.725 0 1.072-.115 1.8-.534l.345-.2C12.663 40.393 13.933 40 16 40c2.026 0 3.14.334 4.894 1.211 1.247.623 1.799.789 3.106.789s1.86-.166 3.106-.789C28.859 40.334 29.974 40 32 40c2.061 0 3.377.396 4.916 1.253l.478.269c.664.369 1.002.478 1.606.478.855 0 1.738-.275 2.584-.747.523-.291.898-.575 1.064-.726a2 2 0 0 1 2.704 2.946c-.379.349-.997.815-1.82 1.274C42.134 45.525 40.612 46 39 46c-1.38 0-2.34-.31-3.548-.981l-.483-.272C33.988 44.201 33.32 44 32 44c-1.307 0-1.86.166-3.106.789C27.141 45.666 26.026 46 24 46c-2.026 0-3.14-.334-4.894-1.211C17.859 44.166 17.307 44 16 44c-1.306 0-1.91.187-2.86.734l-.345.199C11.512 45.672 10.523 46 9 46c-1.71 0-3.268-.477-4.64-1.266-.826-.476-1.426-.964-1.79-1.336z" fill-rule="nonzero" fill="#000"/></svg>