<svg width="48" height="48" viewBox="0 0 48 48" xmlns="http://www.w3.org/2000/svg"><title>book-2</title><path d="M14 6h-3.004A.997.997 0 0 0 10 7.007v33.986c0 .56.446 1.007.996 1.007H34a4 4 0 0 0 4-4V10a4 4 0 0 0-4-4h-6v18c0 1.555-1.696 2.515-3.029 1.715L21 23.332l-3.971 2.383C15.696 26.515 14 25.555 14 24V6zM6 7.007A4.997 4.997 0 0 1 10.996 2H34a8 8 0 0 1 8 8v28a8 8 0 0 1-8 8H10.996A4.999 4.999 0 0 1 6 40.993V7.007zm12 13.46l1.971-1.182a2 2 0 0 1 2.058 0L24 20.468V6h-6v14.468z" fill-rule="nonzero" fill="#000"/></svg>