<svg width="48" height="48" viewBox="0 0 48 48" xmlns="http://www.w3.org/2000/svg"><title>bookmark-added</title><path d="M9 42.801V7.007A5.005 5.005 0 0 1 14.008 2h19.984A5.005 5.005 0 0 1 39 7.007V42.8c0 2.66-2.468 4.034-4.74 2.65l-9.601-5.848c-.302-.184-1.015-.185-1.318 0L13.74 45.45c-2.266 1.38-4.74.012-4.74-2.65zm12.26-6.615c1.582-.963 3.9-.962 5.48 0L35 41.218V7.007C35 6.449 34.55 6 33.992 6H14.008C13.449 6 13 6.45 13 7.007v34.211l8.26-5.032zm-.846-16.6L23 22.172l5.586-5.586a2 2 0 0 1 2.828 2.828l-7 7c-.39.39-.902.586-1.414.586a1.994 1.994 0 0 1-1.414-.586l-4-4a2 2 0 0 1 2.828-2.828z" fill-rule="nonzero" fill="#000"/></svg>