<svg width="48" height="48" viewBox="0 0 48 48" xmlns="http://www.w3.org/2000/svg"><title>book-1</title><path d="M24 8.923l15.593-4.676C42.987 3.229 46 5.464 46 9.01v22.993c0 3.094-2.295 6.174-5.258 7.063l-16.108 4.83a1.975 1.975 0 0 1-1.268 0l-16.108-4.83C4.295 38.178 2 35.098 2 32.004V9.011c0-3.547 3.013-5.782 6.407-4.764L24 8.923zM7.258 8.078C6.428 7.829 6 8.146 6 9.011v22.993c0 1.327 1.135 2.85 2.407 3.232L22 39.312V12.5L7.258 8.078zm32.335 27.158C40.865 34.854 42 33.33 42 32.004V9.011c0-.865-.428-1.182-1.258-.933L26 12.499v26.813l13.593-4.076z" fill-rule="nonzero" fill="#000"/></svg>