<svg width="48" height="48" viewBox="0 0 48 48" xmlns="http://www.w3.org/2000/svg"><title>bowtie</title><path d="M18.71 16.717A8.96 8.96 0 0 1 24 15a8.96 8.96 0 0 1 5.29 1.717l8.262-4.913.169-.09c4.32-2.039 8.279.477 8.279 5.26v14.05c0 4.786-3.954 7.302-8.28 5.26l-.168-.09-8.263-4.912A8.96 8.96 0 0 1 24 33a8.96 8.96 0 0 1-5.29-1.718l-8.262 4.913-.169.09C5.954 38.324 2 35.81 2 31.023v-14.05c0-4.783 3.96-7.299 8.28-5.26l.168.09 8.263 4.913zm-2.665 3.07l-7.553-4.492C6.878 14.565 6 15.152 6 16.975v14.049c0 1.826.875 2.412 2.492 1.68l7.553-4.49A8.96 8.96 0 0 1 15 24a8.96 8.96 0 0 1 1.045-4.214zm15.91 8.426l7.553 4.49c1.617.733 2.492.147 2.492-1.68V16.976c0-1.823-.878-2.41-2.492-1.68l-7.553 4.491A8.96 8.96 0 0 1 33 24a8.96 8.96 0 0 1-1.045 4.213zM24 29a5 5 0 1 0 0-10 5 5 0 0 0 0 10z" fill-rule="nonzero" fill="#000"/></svg>