<svg width="48" height="48" viewBox="0 0 48 48" xmlns="http://www.w3.org/2000/svg"><title>box-1</title><path d="M17 6H7.007C6.449 6 6 6.449 6 7.007v33.986C6 41.551 6.449 42 7.007 42h33.986c.558 0 1.007-.449 1.007-1.007V7.007C42 6.449 41.551 6 40.993 6H31v12a2 2 0 0 1-2 2H19a2 2 0 0 1-2-2V6zM2 7.007A5.004 5.004 0 0 1 7.007 2h33.986A5.004 5.004 0 0 1 46 7.007v33.986A5.004 5.004 0 0 1 40.993 46H7.007A5.004 5.004 0 0 1 2 40.993V7.007zM21 16h6V6h-6v10zm14 16.828V38a2 2 0 1 1-4 0v-5.172l-1.586 1.586a2 2 0 0 1-2.828-2.828l5-5a2 2 0 0 1 2.828 0l5 5a2 2 0 0 1-2.828 2.828L35 32.828z" fill-rule="nonzero" fill="#000"/></svg>