<svg width="48" height="48" viewBox="0 0 48 48" xmlns="http://www.w3.org/2000/svg"><title>bubble-2</title><path d="M7.007 36C4.245 36 2 33.758 2 31.004V8.996A5 5 0 0 1 7.007 4h33.986C43.755 4 46 6.242 46 8.996v22.008A4.996 4.996 0 0 1 40.998 36H38v6c0 1.726-2.039 2.641-3.329 1.495L26.24 36H7.007zM34 34a2 2 0 0 1 2-2h4.998A.996.996 0 0 0 42 31.004V8.996C42 8.453 41.547 8 40.993 8H7.007A1 1 0 0 0 6 8.996v22.008c0 .543.453.996 1.007.996H27a2 2 0 0 1 1.329.505L34 37.546V34zM15 18a2 2 0 1 1 0-4h18a2 2 0 1 1 0 4H15zm0 8a2 2 0 1 1 0-4h12a2 2 0 1 1 0 4H15z" fill-rule="nonzero" fill="#000"/></svg>