<svg width="48" height="48" viewBox="0 0 48 48" xmlns="http://www.w3.org/2000/svg"><title>bubbles-chat</title><path d="M10 11V7c0-2.21 1.786-4 4.002-4h27.996A4.005 4.005 0 0 1 46 7v19c0 2.207-1.792 4-3.998 4H40v7c0 1.782-2.154 2.674-3.414 1.414l-2.418-2.417A4.051 4.051 0 0 1 34 36H19.828l-8.414 8.414C10.154 45.674 8 44.782 8 43v-7H5.998A3.999 3.999 0 0 1 2 32.005v-17.01C2 12.795 3.795 11 6.002 11H10zm26 17a2 2 0 0 1 2-2h4.002C41.998 26 42 7 42 7H14.002L14 26h15a2 2 0 0 1 1.414.586L36 32.172V28zM10 15H6.002L6 32h4a2 2 0 0 1 2 2v4.172l5.586-5.586A2 2 0 0 1 19 32h11.172l-2-2H14c-2.208 0-4-1.796-4-4V15z" fill-rule="nonzero" fill="#000"/></svg>