<svg width="48" height="48" viewBox="0 0 48 48" xmlns="http://www.w3.org/2000/svg"><title>bus</title><path d="M33 42H15v.998A3.003 3.003 0 0 1 12 46c-1.657 0-3-1.339-3-3.002v-1.29a7.007 7.007 0 0 1-5-6.714V9.006A7.004 7.004 0 0 1 11.006 2h25.988A7.004 7.004 0 0 1 44 9.006v25.988a7.007 7.007 0 0 1-5 6.715v1.29A3.003 3.003 0 0 1 36 46c-1.657 0-3-1.339-3-3.002V42zM22 6H11.006A2.997 2.997 0 0 0 8 8.992v12.016A2.996 2.996 0 0 0 11.006 24H22V6zm4 0v18h10.994A2.997 2.997 0 0 0 40 21.008V8.992A2.996 2.996 0 0 0 36.994 6H26zm14 21.326c-.91.432-1.93.674-3.006.674H11.006A6.995 6.995 0 0 1 8 27.326v7.668A3.004 3.004 0 0 0 11.006 38h25.988A3.004 3.004 0 0 0 40 34.994v-7.668zM13 36a3 3 0 1 1 0-6 3 3 0 0 1 0 6zm22 0a3 3 0 1 1 0-6 3 3 0 0 1 0 6z" fill-rule="nonzero" fill="#000"/></svg>