<svg width="48" height="48" viewBox="0 0 48 48" xmlns="http://www.w3.org/2000/svg"><title>calculator-1</title><path d="M15.5 29.672l2.086-2.086a2 2 0 0 1 2.828 2.828L18.328 32.5l2.086 2.086a2 2 0 0 1-2.828 2.828L15.5 35.328l-2.086 2.086a2 2 0 0 1-2.828-2.828l2.086-2.086-2.086-2.086a2 2 0 0 1 2.828-2.828l2.086 2.086zM17 13h2a2 2 0 1 1 0 4h-2v2a2 2 0 1 1-4 0v-2h-2a2 2 0 1 1 0-4h2v-2a2 2 0 1 1 4 0v2zM2 7.007A5.004 5.004 0 0 1 7.007 2h33.986A5.004 5.004 0 0 1 46 7.007v33.986A5.004 5.004 0 0 1 40.993 46H7.007A5.004 5.004 0 0 1 2 40.993V7.007zm4 0v33.986C6 41.551 6.449 42 7.007 42h33.986c.558 0 1.007-.449 1.007-1.007V7.007C42 6.449 41.551 6 40.993 6H7.007C6.449 6 6 6.449 6 7.007zM29 17a2 2 0 1 1 0-4h8a2 2 0 1 1 0 4h-8zm0 14a2 2 0 1 1 0-4h8a2 2 0 1 1 0 4h-8zm0 7a2 2 0 1 1 0-4h8a2 2 0 1 1 0 4h-8z" fill-rule="nonzero" fill="#000"/></svg>