<svg width="48" height="48" viewBox="0 0 48 48" xmlns="http://www.w3.org/2000/svg"><title>calendar-2</title><path d="M35 6h5.993A5.006 5.006 0 0 1 46 11.007v29.986A5.005 5.005 0 0 1 40.993 46H7.007A5.006 5.006 0 0 1 2 40.993V11.007A5.005 5.005 0 0 1 7.007 6H13V4a2 2 0 1 1 4 0v2h14V4a2 2 0 1 1 4 0v2zm0 4v2a2 2 0 1 1-4 0v-2H17v2a2 2 0 1 1-4 0v-2H7.007C6.449 10 6 10.45 6 11.007v29.986C6 41.55 6.45 42 7.007 42h33.986c.558 0 1.007-.45 1.007-1.007V11.007C42 10.45 41.55 10 40.993 10H35zm-4 12h-2a2 2 0 1 1 0-4h4a2 2 0 0 1 2 2v16a2 2 0 1 1-4 0V22zm-13.987 5.733A2.023 2.023 0 0 1 17 27.5c0-.465.158-.892.418-1.224a1.993 1.993 0 0 1 1.166-.733 6 6 0 0 1 1.058-.146A2.003 2.003 0 0 0 21 23.5c0-.79-.77-1.5-1.8-1.5-.66 0-1.24.3-1.558.756a2 2 0 1 1-3.284-2.285C15.428 18.933 17.24 18 19.201 18 22.369 18 25 20.424 25 23.5a6.024 6.024 0 0 1-1.076 3.43A6.11 6.11 0 0 1 26 31.5c0 3.616-3.051 6.5-6.761 6.5-2.536 0-4.836-1.357-5.997-3.495a2 2 0 1 1 3.516-1.908c.458.844 1.406 1.403 2.481 1.403C20.789 34 22 32.855 22 31.5c0-1.302-1.266-2.357-2.536-2.054a2 2 0 0 1-2.45-1.713z" fill-rule="nonzero" fill="#000"/></svg>