<svg width="48" height="48" viewBox="0 0 48 48" xmlns="http://www.w3.org/2000/svg"><title>car</title><path d="M41 40v2.998A3.003 3.003 0 0 1 38 46c-1.657 0-3-1.339-3-3.002V40H13v2.998A3.003 3.003 0 0 1 10 46c-1.657 0-3-1.339-3-3.002V40c-2.757-.004-5-2.245-5-4.993V22.993c0-1.735.885-3.261 2.23-4.156l3.1-12.406C7.956 3.933 10.43 2 12.997 2h22.008c2.572 0 5.041 1.934 5.665 4.431l3.103 12.412A4.99 4.99 0 0 1 46 22.993v12.014A4.997 4.997 0 0 1 41 40zM36.789 7.401C36.609 6.682 35.739 6 35.004 6H12.996c-.73 0-1.605.684-1.785 1.401L8.561 18h30.877l-2.65-10.599zM6 22.993v12.014c0 .54.454.993 1.007.993h33.986A.997.997 0 0 0 42 35.007V22.993c0-.54-.454-.993-1.007-.993H7.007A.997.997 0 0 0 6 22.993zM13 32a3 3 0 1 1 0-6 3 3 0 0 1 0 6zm22 0a3 3 0 1 1 0-6 3 3 0 0 1 0 6z" fill-rule="nonzero" fill="#000"/></svg>