<svg width="48" height="48" viewBox="0 0 48 48" xmlns="http://www.w3.org/2000/svg"><title>card</title><path d="M42 16v-3.004c0-.543-.453-.996-1.007-.996H7.007A1 1 0 0 0 6 12.996V16h36zm0 6H6v13.004c0 .543.453.996 1.007.996h33.986A1 1 0 0 0 42 35.004V22zM2 12.996A5 5 0 0 1 7.007 8h33.986C43.755 8 46 10.242 46 12.996v22.008A5 5 0 0 1 40.993 40H7.007C4.245 40 2 37.758 2 35.004V12.996zM11 33a2 2 0 1 1 0-4h2a2 2 0 1 1 0 4h-2zm9 0a2 2 0 1 1 0-4h6a2 2 0 1 1 0 4h-6z" fill-rule="nonzero" fill="#000"/></svg>