<svg width="48" height="48" viewBox="0 0 48 48" xmlns="http://www.w3.org/2000/svg"><title>chart-2</title><path d="M38 7.007v33.986c0 .56.448 1.007 1.002 1.007h1.996c.556 0 1.002-.448 1.002-1.007V7.007C42 6.447 41.552 6 40.998 6h-1.996C38.446 6 38 6.448 38 7.007zm-4 0A5.001 5.001 0 0 1 39.002 2h1.996A5.002 5.002 0 0 1 46 7.007v33.986A5.001 5.001 0 0 1 40.998 46h-1.996A5.002 5.002 0 0 1 34 40.993V7.007zM2 18.997A4.996 4.996 0 0 1 7.002 14h1.996A5.005 5.005 0 0 1 14 18.996v22.008A4.996 4.996 0 0 1 8.998 46H7.002A5.005 5.005 0 0 1 2 41.004V18.996zm4 0v22.007c0 .544.452.996 1.002.996h1.996A.996.996 0 0 0 10 41.004V18.996c0-.544-.452-.996-1.002-.996H7.002A.996.996 0 0 0 6 18.996zm12 12.012A5.002 5.002 0 0 1 23.002 26h1.996A4.999 4.999 0 0 1 30 31.01v9.98A5.002 5.002 0 0 1 24.998 46h-1.996A4.999 4.999 0 0 1 18 40.99v-9.98zm4 0v9.982A.999.999 0 0 0 23.002 42h1.996c.555 0 1.002-.449 1.002-1.01v-9.98A.999.999 0 0 0 24.998 30h-1.996c-.555 0-1.002.449-1.002 1.01z" fill-rule="nonzero" fill="#000"/></svg>