<svg width="48" height="48" viewBox="0 0 48 48" xmlns="http://www.w3.org/2000/svg"><title>chart-4</title><path d="M2 7.007A5.004 5.004 0 0 1 7.007 2h33.986A5.004 5.004 0 0 1 46 7.007v33.986A5.004 5.004 0 0 1 40.993 46H7.007A5.004 5.004 0 0 1 2 40.993V7.007zm4 0v33.986C6 41.551 6.449 42 7.007 42h33.986c.558 0 1.007-.449 1.007-1.007V7.007C42 6.449 41.551 6 40.993 6H7.007C6.449 6 6 6.449 6 7.007zM25.8 29.6l-6.612-4.96-7.774 7.774a2 2 0 0 1-2.828-2.828l9-9A2 2 0 0 1 20.2 20.4l6.678 5.008 9.777-8.888a2 2 0 1 1 2.69 2.96l-11 10a2 2 0 0 1-2.545.12z" fill-rule="nonzero" fill="#000"/></svg>