<svg width="48" height="48" viewBox="0 0 48 48" xmlns="http://www.w3.org/2000/svg"><title>chart-diagram-2</title><path d="M12.765 38.064A17.924 17.924 0 0 0 24 42c9.941 0 18-8.059 18-18 0-9.265-7-16.895-16-17.89V24c0 .584-.242 1.09-.618 1.447L12.765 38.064zm-2.829-2.829l10.59-10.59L6.828 18.59A17.992 17.992 0 0 0 6 24c0 4.25 1.473 8.156 3.936 11.235zM8.447 14.932L22 20.922V6.11c-5.788.64-10.749 4.024-13.553 8.822zM24 46C11.85 46 2 36.15 2 24S11.85 2 24 2s22 9.85 22 22-9.85 22-22 22z" fill-rule="nonzero" fill="#000"/></svg>