<svg width="48" height="48" viewBox="0 0 48 48" xmlns="http://www.w3.org/2000/svg"><title>clip</title><path d="M39.345 27.304L27.83 38.78c-4.308 4.293-11.293 4.293-15.602 0a10.953 10.953 0 0 1 .001-15.53L27.583 7.95c2.608-2.6 6.852-2.598 9.46 0a6.63 6.63 0 0 1 .005 9.403L21.691 32.656a2.36 2.36 0 0 1-3.322.003 2.317 2.317 0 0 1 .005-3.292l11.511-11.471a2 2 0 0 0-2.823-2.834L15.55 26.534a6.316 6.316 0 0 0-.004 8.959 6.36 6.36 0 0 0 8.968-.004l15.358-15.304c4.173-4.16 4.17-10.907-.006-15.069C35.698.963 28.93.96 24.76 5.116L9.405 20.416c-5.873 5.852-5.873 15.344-.001 21.196 5.87 5.85 15.38 5.849 21.249 0l11.516-11.476a2 2 0 1 0-2.824-2.833z" fill-rule="nonzero" fill="#000"/></svg>