<?xml version="1.0" encoding="UTF-8"?>
<svg width="48px" height="48px" viewBox="0 0 48 48" version="1.1" xmlns="http://www.w3.org/2000/svg" xmlns:xlink="http://www.w3.org/1999/xlink">
    <!-- Generator: Sketch 43.2 (39069) - http://www.bohemiancoding.com/sketch -->
    <title>coins-2</title>
    <desc>Created with Sketch.</desc>
    <defs></defs>
    <g id="icons-304" stroke="none" stroke-width="1" fill="none" fill-rule="evenodd">
        <g id="coins-2" fill-rule="nonzero" fill="#000000">
            <path d="M17,34 L17,26 L16.2,26.6 C15.3163444,27.2627417 14.0627417,27.0836556 13.4,26.2 C12.7372583,25.3163444 12.9163444,24.0627417 13.8,23.4 L17.8,20.4 C19.1184725,19.4111456 21,20.3519094 21,22 L21,34 L23,34 C24.1045695,34 25,34.8954305 25,36 C25,37.1045695 24.1045695,38 23,38 L15,38 C13.8954305,38 13,37.1045695 13,36 C13,34.8954305 13.8954305,34 15,34 L17,34 L17,34 Z M33.934684,20.8719743 C35.8118132,20.7045763 37.5089037,20.3790346 38.8528258,19.9310605 C39.7446555,19.633784 40.4202048,19.3004691 40.8190328,18.9861573 C40.9003128,18.9221015 40.9600915,18.8668673 41,18.8241163 L41,13.424487 C38.4581594,14.4629779 34.9157415,15 31,15 C30.1603501,15 29.3378655,14.9753077 28.5387307,14.9262738 C30.7768354,16.446148 32.633339,18.4859006 33.934684,20.8719743 L33.934684,20.8719743 Z M35.4635076,24.7464345 C35.8137242,26.1058926 36,27.5311928 36,29 C36,29.548115 35.97406,30.0901714 35.9233406,30.6250086 C37.0118781,30.4486731 38.002967,30.2143468 38.8528258,29.9310605 C39.7446555,29.633784 40.4202048,29.3004691 40.8190328,28.9861573 C40.9003128,28.9221015 40.9600915,28.8668673 41,28.8241163 L41,23.424487 C39.4710316,24.0491603 37.5800277,24.4923888 35.4635076,24.7464345 L35.4635076,24.7464345 Z M31.0416198,40.9999749 C34.0487642,40.9963531 36.8449566,40.6003503 38.8528258,39.9310605 C39.7446555,39.633784 40.4202048,39.3004691 40.8190328,38.9861573 C40.9003128,38.9221015 40.9600915,38.8668673 41,38.8241163 L41,33.424487 C39.3566604,34.0958876 37.2950971,34.557683 34.9848142,34.8002656 C34.1311757,37.1522756 32.7732092,39.2624138 31.0416198,40.9999749 L31.0416198,40.9999749 Z M25.6902073,44.6329599 C23.6368989,45.5128317 21.3753416,46 19,46 C9.61115925,46 2,38.3888407 2,29 C2,20.2877864 8.55365974,13.1062621 17,12.1164063 L17,8 C17,4.09105864 23.2731759,2 31,2 C38.7268241,2 45,4.09105864 45,8 L45,39 C45,42.9089414 38.7268241,45 31,45 C29.1210042,45 27.3279708,44.8763438 25.6902073,44.6329599 L25.6902073,44.6329599 Z M21,8.82411627 C21.0399085,8.86686727 21.0996872,8.92210147 21.1809672,8.98615733 C21.5797952,9.30046911 22.2553445,9.63378397 23.1471742,9.93106053 C25.1643036,10.603437 27.9770443,11 31,11 C34.0229557,11 36.8356964,10.603437 38.8528258,9.93106053 C39.7446555,9.63378397 40.4202048,9.30046911 40.8190328,8.98615733 C40.9003128,8.92210147 40.9600915,8.86686727 41,8.82411627 L41,8.17588373 C40.9600915,8.13313273 40.9003128,8.07789853 40.8190328,8.01384267 C40.4202048,7.69953089 39.7446555,7.36621603 38.8528258,7.06893947 C36.8356964,6.39656301 34.0229557,6 31,6 C27.9770443,6 25.1643036,6.39656301 23.1471742,7.06893947 C22.2553445,7.36621603 21.5797952,7.69953089 21.1809672,8.01384267 C21.0996872,8.07789853 21.0399085,8.13313273 21,8.17588373 L21,8.82411627 L21,8.82411627 Z M19,42 C26.1797017,42 32,36.1797017 32,29 C32,21.8202983 26.1797017,16 19,16 C11.8202983,16 6,21.8202983 6,29 C6,36.1797017 11.8202983,42 19,42 Z" id="Combined-Shape"></path>
        </g>
    </g>
</svg>