<svg width="48" height="48" viewBox="0 0 48 48" xmlns="http://www.w3.org/2000/svg"><title>color-picker</title><path d="M35.828 23l2.586 2.586a2 2 0 0 1-2.828 2.828L33 25.828 13.414 45.414A2 2 0 0 1 12 46H4a2 2 0 0 1-2-2v-8a2 2 0 0 1 .586-1.414L22.172 15l-2.586-2.586a2 2 0 0 1 2.828-2.828L25 12.172l7.461-7.462C34.011 3.16 36.81 2 39.001 2A7 7 0 0 1 46 8.998c0 2.19-1.16 4.99-2.71 6.54L35.828 23zM33 20.172l7.461-7.462c.8-.8 1.539-2.583 1.539-3.712A3 3 0 0 0 39.002 6c-1.13 0-2.913.739-3.712 1.539L27.828 15 33 20.172zM30.172 23L25 17.828l-19 19V42h5.172l19-19z" fill-rule="nonzero" fill="#000"/></svg>