<svg width="48" height="48" viewBox="0 0 48 48" xmlns="http://www.w3.org/2000/svg"><title>colors</title><path d="M10.061 18.318C10.021 17.884 10 17.445 10 17c0-7.732 6.268-14 14-14s14 6.268 14 14c0 .445-.02.884-.061 1.318C42.702 20.553 46 25.391 46 31c0 7.732-6.268 14-14 14-2.974 0-5.732-.928-8-2.51A13.936 13.936 0 0 1 16 45C8.268 45 2 38.732 2 31c0-5.609 3.298-10.447 8.061-12.682zm.982 3.995A9.996 9.996 0 0 0 6 31c0 5.523 4.477 10 10 10 1.822 0 3.53-.487 5-1.338A13.94 13.94 0 0 1 18 31c0-.445.02-.884.061-1.318a14.051 14.051 0 0 1-7.018-7.37zm10.958 8.545L22 31c0 5.523 4.477 10 10 10s10-4.477 10-10c0-3.72-2.03-6.964-5.043-8.687C34.864 27.41 29.85 31 24 31c-.679 0-1.346-.048-1.999-.142zM24 27c5.523 0 10-4.477 10-10S29.523 7 24 7s-10 4.477-10 10 4.477 10 10 10z" fill-rule="nonzero" fill="#000"/></svg>