<?xml version="1.0" encoding="UTF-8"?>
<svg width="48px" height="48px" viewBox="0 0 48 48" version="1.1" xmlns="http://www.w3.org/2000/svg" xmlns:xlink="http://www.w3.org/1999/xlink">
    <!-- Generator: Sketch 43.2 (39069) - http://www.bohemiancoding.com/sketch -->
    <title>compass</title>
    <desc>Created with Sketch.</desc>
    <defs></defs>
    <g id="icons-304" stroke="none" stroke-width="1" fill="none" fill-rule="evenodd">
        <g id="compass" fill-rule="nonzero" fill="#000000">
            <path d="M24,46 C11.8497355,46 2,36.1502645 2,24 C2,11.8497355 11.8497355,2 24,2 C36.1502645,2 46,11.8497355 46,24 C46,36.1502645 36.1502645,46 24,46 Z M24,42 C33.9411255,42 42,33.9411255 42,24 C42,14.0588745 33.9411255,6 24,6 C14.0588745,6 6,14.0588745 6,24 C6,33.9411255 14.0588745,42 24,42 Z M18.4505577,17.0769521 L32.4505577,13.0769521 C33.9592615,12.6458939 35.3541061,14.0407385 34.9230479,15.5494423 L30.9230479,29.5494423 C30.7332148,30.2138579 30.2138579,30.7332148 29.5494423,30.9230479 L15.5494423,34.9230479 C14.0407385,35.3541061 12.6458939,33.9592615 13.0769521,32.4505577 L17.0769521,18.4505577 C17.2667852,17.7861421 17.7861421,17.2667852 18.4505577,17.0769521 Z M17.912044,30.087956 L27.3821978,27.3821978 L30.087956,17.912044 L20.6178022,20.6178022 L17.912044,30.087956 Z M24,26 C22.8954305,26 22,25.1045695 22,24 C22,22.8954305 22.8954305,22 24,22 C25.1045695,22 26,22.8954305 26,24 C26,25.1045695 25.1045695,26 24,26 Z" id="Combined-Shape"></path>
        </g>
    </g>
</svg>