<?xml version="1.0" encoding="UTF-8"?>
<svg width="48px" height="48px" viewBox="0 0 48 48" version="1.1" xmlns="http://www.w3.org/2000/svg" xmlns:xlink="http://www.w3.org/1999/xlink">
    <!-- Generator: Sketch 43.2 (39069) - http://www.bohemiancoding.com/sketch -->
    <title>cup-1</title>
    <desc>Created with Sketch.</desc>
    <defs></defs>
    <g id="icons-304" stroke="none" stroke-width="1" fill="none" fill-rule="evenodd">
        <g id="cup-1" fill-rule="nonzero" fill="#000000">
            <path d="M35.7589169,29.5980086 C34.3510213,31.7728197 32.3567997,33.5322552 30,34.6522901 L30,36.1017381 C32.2814015,36.5683775 34,38.5849407 34,41 L34,44 C34,45.1045695 33.1045695,46 32,46 L16,46 C14.8954305,46 14,45.1045695 14,44 L14,41 C14,38.5795179 15.7130197,36.5657362 18,36.1010022 L18,34.6542772 C15.6398207,33.533953 13.6435972,31.7726736 12.2355368,29.5942106 C6.08341966,25.6940083 2,18.8245845 2,11 C2,8.23890463 4.24032347,6 7.0065012,6 L10.099983,6 C10.5627647,3.7189863 12.5772118,2 14.9910904,2 L33.0089096,2 C35.4233929,2 37.4370249,3.72055619 37.8999106,6 L40.9934988,6 C43.7594229,6 46,8.23864825 46,11.0065012 C46,18.829377 41.9140648,25.6989958 35.7589169,29.5980086 L35.7589169,29.5980086 Z M10,10 L7.0065012,10 C6.44889539,10 6,10.4486111 6,11 C6,15.2895647 7.49984667,19.2282054 10.0037523,22.3202973 C10.0012553,22.2112685 10,22.1019293 10,21.9922932 L10,10 L10,10 Z M38,10 L38,21.9922932 C38,22.102345 37.9987319,22.2121003 37.9962095,22.3215453 C40.5001245,19.2303831 42,15.29334 42,11.0065012 C42,10.4485588 41.5510547,10 40.9934988,10 L38,10 L38,10 Z M22,35.8584551 L22,38 C22,39.1045695 21.1045695,40 20,40 L19.0094776,40 C18.4446108,40 18,40.4443077 18,41 L18,42 L30,42 L30,41 C30,40.4509884 29.5479377,40 28.9905224,40 L28,40 C26.8954305,40 26,39.1045695 26,38 L26,35.8581881 C25.3468079,35.9516447 24.6790578,36 24,36 C23.3209061,36 22.6531592,35.9517403 22,35.8584551 L22,35.8584551 Z M14,7.00001915 L14,21.9922932 C14,27.52763 18.4727504,32 24,32 C29.5234763,32 34,27.5202256 34,21.9922932 L34,7.00001915 C34,6.44869015 33.5530738,6 33.0089096,6 L14.9910904,6 C14.4465031,6 14,6.4475658 14,7.00001915 Z M24.0000264,21.3883342 L21.0704513,22.8668132 C20.4205828,23.1947846 19.9946787,22.8958257 20.1184882,22.2028745 L20.6779873,19.0714057 L18.3079112,16.8536872 C17.7821565,16.36173 17.9467354,15.880512 18.6715288,15.7794118 L21.9468933,15.3225367 L23.4116809,12.4734323 C23.7366152,11.8414146 24.2642345,11.8429644 24.588372,12.4734323 L26.0531595,15.3225367 L29.3285241,15.7794118 C30.0550992,15.8807606 30.2166071,16.3629364 29.6921416,16.8536872 L27.3220656,19.0714057 L27.8815646,22.2028745 C28.0056785,22.8975292 27.5778765,23.1939804 26.9296016,22.8668132 L24.0000264,21.3883342 Z" id="Combined-Shape"></path>
        </g>
    </g>
</svg>