<svg width="48" height="48" viewBox="0 0 48 48" xmlns="http://www.w3.org/2000/svg"><title>dashboard-1</title><path d="M18.457 21.7l-5.285-5.286A2 2 0 0 1 16 13.586l5.139 5.139a6 6 0 1 1-2.682 2.975zM24 46C11.85 46 2 36.15 2 24S11.85 2 24 2s22 9.85 22 22-9.85 22-22 22zm0-4c9.941 0 18-8.059 18-18S33.941 6 24 6 6 14.059 6 24s8.059 18 18 18zm0-16a2 2 0 1 0 0-4 2 2 0 0 0 0 4zm-2-15a2 2 0 1 1 4 0v2a2 2 0 1 1-4 0v-2zM11 26a2 2 0 1 1 0-4h2a2 2 0 1 1 0 4h-2zm24 0a2 2 0 1 1 0-4h2a2 2 0 1 1 0 4h-2zm-3.414-12.414a2 2 0 0 1 2.828 2.828L33 17.828A2 2 0 1 1 30.172 15l1.414-1.414z" fill-rule="nonzero" fill="#000"/></svg>