<svg width="48" height="48" viewBox="0 0 48 48" xmlns="http://www.w3.org/2000/svg"><title>delivery-1</title><path d="M19.659 37A6.002 6.002 0 0 1 8.34 37H6.993A4.998 4.998 0 0 1 2 31.992V12.008C2 9.244 4.232 7 6.993 7h21.014A4.998 4.998 0 0 1 33 12.008V13h6a2 2 0 0 1 1.536.72l5 6A2 2 0 0 1 46 21v10.997A5 5 0 0 1 41.001 37h-.342a6.002 6.002 0 0 1-11.318 0H19.66zm0-4H29V12.008A.998.998 0 0 0 28.007 11H6.993A1 1 0 0 0 6 12.008v19.984c0 .561.445 1.008.993 1.008H8.34a6.002 6.002 0 0 1 11.318 0zm21 0H41A1 1 0 0 0 42 31.997V21.724L38.063 17H33v12.341A6.002 6.002 0 0 1 40.659 33zM35 37a2 2 0 1 0 0-4 2 2 0 0 0 0 4zm-21 0a2 2 0 1 0 0-4 2 2 0 0 0 0 4z" fill-rule="nonzero" fill="#000"/></svg>