<svg width="48" height="48" viewBox="0 0 48 48" xmlns="http://www.w3.org/2000/svg"><title>diamond-1</title><path d="M7.236 14h6.276l2.4-8h-4.676l-4 8zm12.852-8l-2.4 8h12.624l-2.4-8h-7.824zm12 0l2.4 8h6.276l-4-8h-4.676zm8.026 12h-5.708l-5.8 16.111L40.114 18zm-20.72 16.111L13.594 18H7.886l11.508 16.111zM10 2h28a2 2 0 0 1 1.789 1.106l6 12a2 2 0 0 1-.162 2.056l-20 28a2 2 0 0 1-3.254 0l-20-28a2 2 0 0 1-.162-2.056l6-12A2 2 0 0 1 10 2zm14 33.095L30.154 18H17.846L24 35.095z" fill-rule="nonzero" fill="#000"/></svg>