<svg width="48" height="48" viewBox="0 0 48 48" xmlns="http://www.w3.org/2000/svg"><title>dollar-1</title><path d="M26 22.779c6.125 3.179 8.5 5.236 8.956 9.365.524 4.738-3.478 8.878-8.956 9.706V44a2 2 0 1 1-4 0v-2.137c-2.068-.289-3.962-1.02-5.66-2.07-1.343-.83-2.295-1.672-2.838-2.286a2 2 0 0 1 2.996-2.65c.054.06.203.212.443.424.423.375.926.754 1.5 1.108A10.698 10.698 0 0 0 22 37.807V25.221c-6.125-3.179-8.5-5.236-8.956-9.365C12.52 11.118 16.522 6.978 22 6.15V4a2 2 0 1 1 4 0v2.137c2.068.289 3.962 1.02 5.66 2.07 1.343.83 2.295 1.672 2.838 2.286a2 2 0 0 1-2.996 2.65 5.995 5.995 0 0 0-.443-.424 10.955 10.955 0 0 0-1.5-1.108A10.698 10.698 0 0 0 26 10.193v12.586zm0 15.01c3.17-.689 5.23-2.947 4.98-5.206-.215-1.95-1.495-3.298-4.98-5.261v10.466zm-4-27.577c-3.17.688-5.23 2.946-4.98 5.205.215 1.95 1.495 3.298 4.98 5.261V10.212z" fill-rule="nonzero" fill="#000"/></svg>